<svg width="20" height="20" viewBox="0 0 20 20" fill="none" xmlns="http://www.w3.org/2000/svg">
<path d="M13.6799 5.00005C13.6799 4.44776 14.1281 4.00005 14.681 4.00005C15.2339 4.00005 15.6821 4.44776 15.6821 5.00005C15.6821 5.55233 15.2339 6.00005 14.681 6.00005C14.1281 6.00005 13.6799 5.55233 13.6799 5.00005Z" fill="black"/>
<path fill-rule="evenodd" clip-rule="evenodd" d="M9.67544 5.25005C7.04918 5.25005 4.92017 7.37669 4.92017 10C4.92017 12.6234 7.04918 14.75 9.67544 14.75C12.3017 14.75 14.4307 12.6234 14.4307 10C14.4307 7.37669 12.3017 5.25005 9.67544 5.25005ZM6.42184 10C6.42184 8.20512 7.87852 6.75005 9.67544 6.75005C11.4723 6.75005 12.929 8.20512 12.929 10C12.929 11.795 11.4723 13.25 9.67544 13.25C7.87852 13.25 6.42184 11.795 6.42184 10Z" fill="black"/>
<path fill-rule="evenodd" clip-rule="evenodd" d="M14.9395 0.833061C11.4691 0.44562 7.88179 0.44562 4.41138 0.833061C2.3971 1.05794 0.770963 2.64295 0.534148 4.66548C0.119151 8.20978 0.119151 11.7903 0.534148 15.3346C0.770963 17.3571 2.3971 18.9422 4.41138 19.167C7.8818 19.5545 11.4691 19.5545 14.9395 19.167C16.9538 18.9422 18.5799 17.3571 18.8167 15.3346C19.2317 11.7903 19.2317 8.20978 18.8167 4.66548C18.5799 2.64295 16.9538 1.05794 14.9395 0.833061ZM4.57817 2.32378C7.93774 1.94871 11.4132 1.94871 14.7727 2.32378C16.1043 2.47244 17.171 3.52205 17.3253 4.83973C17.7267 8.26825 17.7267 11.7318 17.3253 15.1604C17.171 16.478 16.1043 17.5277 14.7727 17.6763C11.4132 18.0514 7.93774 18.0514 4.57818 17.6763C3.2466 17.5277 2.17993 16.478 2.02564 15.1604C1.6242 11.7318 1.6242 8.26825 2.02564 4.83973C2.17993 3.52205 3.24659 2.47244 4.57817 2.32378Z" fill="black"/>
</svg>
